HIERARCHY
ROOT Hips
{
  OFFSET -469.55 93.222 672.059
  CHANNELS 6 Xposition Yposition Zposition Zrotation Xrotation Yrotation
  JOINT Spine
  {
    OFFSET 1.77624e-05 8 -1.45767e-05
    CHANNELS 6 Xposition Yposition Zposition Zrotation Xrotation Yrotation
    JOINT Spine1
    {
      OFFSET -4.82571e-05 8 3.44203e-05
      CHANNELS 6 Xposition Yposition Zposition Zrotation Xrotation Yrotation
      JOINT Spine2
      {
        OFFSET 2.63503e-05 8 -2.80109e-05
        CHANNELS 6 Xposition Yposition Zposition Zrotation Xrotation Yrotation
        JOINT Spine3
        {
          OFFSET 0 8 0
          CHANNELS 6 Xposition Yposition Zposition Zrotation Xrotation Yrotation
          JOINT Neck
          {
            OFFSET 4.75079e-05 17 0.000112686
            CHANNELS 6 Xposition Yposition Zposition Zrotation Xrotation Yrotation
            JOINT Head
            {
              OFFSET 0 10.8 1.141e-05
              CHANNELS 6 Xposition Yposition Zposition Zrotation Xrotation Yrotation
              End Site
              {
                OFFSET 0 20.25 0
              }
            }
          }
          JOINT LeftShoulder
          {
            OFFSET 5.00003 17 8.74177e-05
            CHANNELS 6 Xposition Yposition Zposition Zrotation Xrotation Yrotation
            JOINT LeftShoulder2
            {
              OFFSET 6.45 0 0
              CHANNELS 6 Xposition Yposition Zposition Zrotation Xrotation Yrotation
              JOINT LeftArm
              {
                OFFSET 6.44999 -0.000322998 0.000217968
                CHANNELS 6 Xposition Yposition Zposition Zrotation Xrotation Yrotation
                JOINT LeftForeArm
                {
                  OFFSET -4.67178e-05 -32.4 -1.99747
                  CHANNELS 6 Xposition Yposition Zposition Zrotation Xrotation Yrotation
                  JOINT LeftHand
                  {
                    OFFSET 3.84226e-05 -25.65 2.00001
                    CHANNELS 6 Xposition Yposition Zposition Zrotation Xrotation Yrotation
                    JOINT LeftHandThumb1
                    {
                      OFFSET -0.500005 -1.49996 2.64997
                      CHANNELS 6 Xposition Yposition Zposition Zrotation Xrotation Yrotation
                      JOINT LeftHandThumb2
                      {
                        OFFSET 1.35018e-05 -3.80003 3.70006
                        CHANNELS 6 Xposition Yposition Zposition Zrotation Xrotation Yrotation
                        JOINT LeftHandThumb3
                        {
                          OFFSET 0 -2.99998 2.69993
                          CHANNELS 6 Xposition Yposition Zposition Zrotation Xrotation Yrotation
                          End Site
                          {
                            OFFSET -2.12895e-05 -2.30003 1.80004
                          }
                        }
                      }
                    }
                    JOINT LeftHandIndex
                    {
                      OFFSET 2.33648e-05 -1.90005 1.59998
                      CHANNELS 6 Xposition Yposition Zposition Zrotation Xrotation Yrotation
                      JOINT LeftHandIndex1
                      {
                        OFFSET 0 -8.29997 1.9
                        CHANNELS 6 Xposition Yposition Zposition Zrotation Xrotation Yrotation
                        JOINT LeftHandIndex2
                        {
                          OFFSET -2.8546e-05 -4.49999 1.30576e-05
                          CHANNELS 6 Xposition Yposition Zposition Zrotation Xrotation Yrotation
                          JOINT LeftHandIndex3
                          {
                            OFFSET -4.93547e-05 -3.4061 -3.6846e-05
                            CHANNELS 6 Xposition Yposition Zposition Zrotation Xrotation Yrotation
                            End Site
                            {
                              OFFSET 0 -2.59993 2.11808e-05
                            }
                          }
                        }
                      }
                    }
                    JOINT LeftHandMiddle
                    {
                      OFFSET -0.250022 -2.20001 0.399974
                      CHANNELS 6 Xposition Yposition Zposition Zrotation Xrotation Yrotation
                      JOINT LeftHandMiddle1
                      {
                        OFFSET 1.68793e-05 -8.29993 1.00001
                        CHANNELS 6 Xposition Yposition Zposition Zrotation Xrotation Yrotation
                        JOINT LeftHandMiddle2
                        {
                          OFFSET 0 -4.65001 1.41169e-05
                          CHANNELS 6 Xposition Yposition Zposition Zrotation Xrotation Yrotation
                          JOINT LeftHandMiddle3
                          {
                            OFFSET -4.10606e-05 -3.30003 0
                            CHANNELS 6 Xposition Yposition Zposition Zrotation Xrotation Yrotation
                            End Site
                            {
                              OFFSET -3.28272e-05 -2.69996 0
                            }
                          }
                        }
                      }
                    }
                    JOINT LeftHandRing
                    {
                      OFFSET -0.499997 -2.15003 -0.800002
                      CHANNELS 6 Xposition Yposition Zposition Zrotation Xrotation Yrotation
                      JOINT LeftHandRing1
                      {
                        OFFSET -2.35791e-05 -7.75001 -0.200004
                        CHANNELS 6 Xposition Yposition Zposition Zrotation Xrotation Yrotation
                        JOINT LeftHandRing2
                        {
                          OFFSET 2.61864e-05 -3.82135 0
                          CHANNELS 6 Xposition Yposition Zposition Zrotation Xrotation Yrotation
                          JOINT LeftHandRing3
                          {
                            OFFSET -1.78515e-05 -3.40001 0
                            CHANNELS 6 Xposition Yposition Zposition Zrotation Xrotation Yrotation
                            End Site
                            {
                              OFFSET -5.56756e-05 -2.60003 -2.39937e-05
                            }
                          }
                        }
                      }
                    }
                    JOINT LeftHandPinky
                    {
                      OFFSET -0.75002 -1.75 -1.85003
                      CHANNELS 6 Xposition Yposition Zposition Zrotation Xrotation Yrotation
                      JOINT LeftHandPinky1
                      {
                        OFFSET 0 -7.15001 -0.999979
                        CHANNELS 6 Xposition Yposition Zposition Zrotation Xrotation Yrotation
                        JOINT LeftHandPinky2
                        {
                          OFFSET -1.59384e-05 -3.00526 -2.6542e-05
                          CHANNELS 6 Xposition Yposition Zposition Zrotation Xrotation Yrotation
                          JOINT LeftHandPinky3
                          {
                            OFFSET 0 -2.35 1.99773e-05
                            CHANNELS 6 Xposition Yposition Zposition Zrotation Xrotation Yrotation
                            End Site
                            {
                              OFFSET -2.98256e-05 -2.10002 0
                            }
                          }
                        }
                      }
                    }
                  }
                }
              }
            }
          }
          JOINT RightShoulder
          {
            OFFSET -4.99998 17 0.00017422
            CHANNELS 6 Xposition Yposition Zposition Zrotation Xrotation Yrotation
            JOINT RightShoulder2
            {
              OFFSET -6.45 0 0
              CHANNELS 6 Xposition Yposition Zposition Zrotation Xrotation Yrotation
              JOINT RightArm
              {
                OFFSET -6.44998 -0.000306721 0.000141589
                CHANNELS 6 Xposition Yposition Zposition Zrotation Xrotation Yrotation
                JOINT RightForeArm
                {
                  OFFSET -5.56066e-05 -32.4 -2.00001
                  CHANNELS 6 Xposition Yposition Zposition Zrotation Xrotation Yrotation
                  JOINT RightHand
                  {
                    OFFSET 4.64659e-05 -25.65 1.99998
                    CHANNELS 6 Xposition Yposition Zposition Zrotation Xrotation Yrotation
                    JOINT RightHandThumb1
                    {
                      OFFSET 0.499987 -1.5 2.65003
                      CHANNELS 6 Xposition Yposition Zposition Zrotation Xrotation Yrotation
                      JOINT RightHandThumb2
                      {
                        OFFSET -3.73878e-05 -3.80006 3.70001
                        CHANNELS 6 Xposition Yposition Zposition Zrotation Xrotation Yrotation
                        JOINT RightHandThumb3
                        {
                          OFFSET -2.95666e-05 -2.99999 2.70001
                          CHANNELS 6 Xposition Yposition Zposition Zrotation Xrotation Yrotation
                          End Site
                          {
                            OFFSET 0 -2.30002 1.8
                          }
                        }
                      }
                    }
                    JOINT RightHandIndex
                    {
                      OFFSET 4.90306e-05 -1.89993 1.60003
                      CHANNELS 6 Xposition Yposition Zposition Zrotation Xrotation Yrotation
                      JOINT RightHandIndex1
                      {
                        OFFSET -3.95114e-05 -8.30006 1.89993
                        CHANNELS 6 Xposition Yposition Zposition Zrotation Xrotation Yrotation
                        JOINT RightHandIndex2
                        {
                          OFFSET -2.13262e-05 -4.49996 6.01433e-05
                          CHANNELS 6 Xposition Yposition Zposition Zrotation Xrotation Yrotation
                          JOINT RightHandIndex3
                          {
                            OFFSET 5.28399e-05 -3.39999 0
                            CHANNELS 6 Xposition Yposition Zposition Zrotation Xrotation Yrotation
                            End Site
                            {
                              OFFSET -4.07957e-05 -2.6 0
                            }
                          }
                        }
                      }
                    }
                    JOINT RightHandMiddle
                    {
                      OFFSET 0.249993 -2.19998 0.400061
                      CHANNELS 6 Xposition Yposition Zposition Zrotation Xrotation Yrotation
                      JOINT RightHandMiddle1
                      {
                        OFFSET 0 -8.29998 0.999988
                        CHANNELS 6 Xposition Yposition Zposition Zrotation Xrotation Yrotation
                        JOINT RightHandMiddle2
                        {
                          OFFSET 0 -4.64998 -5.28986e-05
                          CHANNELS 6 Xposition Yposition Zposition Zrotation Xrotation Yrotation
                          JOINT RightHandMiddle3
                          {
                            OFFSET 4.53477e-05 -3.3 0
                            CHANNELS 6 Xposition Yposition Zposition Zrotation Xrotation Yrotation
                            End Site
                            {
                              OFFSET -5.40678e-05 -2.69992 8.07853e-05
                            }
                          }
                        }
                      }
                    }
                    JOINT RightHandRing
                    {
                      OFFSET 0.499988 -2.15001 -0.79999
                      CHANNELS 6 Xposition Yposition Zposition Zrotation Xrotation Yrotation
                      JOINT RightHandRing1
                      {
                        OFFSET 3.66004e-05 -7.74998 -0.200027
                        CHANNELS 6 Xposition Yposition Zposition Zrotation Xrotation Yrotation
                        JOINT RightHandRing2
                        {
                          OFFSET 0 -3.8 0
                          CHANNELS 6 Xposition Yposition Zposition Zrotation Xrotation Yrotation
                          JOINT RightHandRing3
                          {
                            OFFSET -5.34935e-05 -3.39996 0
                            CHANNELS 6 Xposition Yposition Zposition Zrotation Xrotation Yrotation
                            End Site
                            {
                              OFFSET 0 -2.60001 1.69782e-05
                            }
                          }
                        }
                      }
                    }
                    JOINT RightHandPinky
                    {
                      OFFSET 0.750019 -1.74991 -1.84994
                      CHANNELS 6 Xposition Yposition Zposition Zrotation Xrotation Yrotation
                      JOINT RightHandPinky1
                      {
                        OFFSET -1.8112e-05 -7.15002 -1.00001
                        CHANNELS 6 Xposition Yposition Zposition Zrotation Xrotation Yrotation
                        JOINT RightHandPinky2
                        {
                          OFFSET 0 -3.00001 2.59028e-05
                          CHANNELS 6 Xposition Yposition Zposition Zrotation Xrotation Yrotation
                          JOINT RightHandPinky3
                          {
                            OFFSET -4.12915e-05 -2.35002 0
                            CHANNELS 6 Xposition Yposition Zposition Zrotation Xrotation Yrotation
                            End Site
                            {
                              OFFSET 2.76442e-05 -2.09994 0
                            }
                          }
                        }
                      }
                    }
                  }
                }
              }
            }
          }
        }
      }
    }
  }
  JOINT LeftUpLeg
  {
    OFFSET 8 0 -3.22511e-05
    CHANNELS 6 Xposition Yposition Zposition Zrotation Xrotation Yrotation
    JOINT LeftLeg
    {
      OFFSET 0 -45 -0.999979
      CHANNELS 6 Xposition Yposition Zposition Zrotation Xrotation Yrotation
      JOINT LeftFoot
      {
        OFFSET 2.28471e-05 -41 -2.00004
        CHANNELS 6 Xposition Yposition Zposition Zrotation Xrotation Yrotation
        JOINT LeftToeBase
        {
          OFFSET 1.40799e-05 -7.50001 12.5
          CHANNELS 6 Xposition Yposition Zposition Zrotation Xrotation Yrotation
          JOINT LeftFootToe
          {
            OFFSET 0 0 4
            CHANNELS 6 Xposition Yposition Zposition Zrotation Xrotation Yrotation
            End Site
            {
              OFFSET 0 0 0
            }
          }
        }
      }
    }
  }
  JOINT RightUpLeg
  {
    OFFSET -8 0 3.22511e-05
    CHANNELS 6 Xposition Yposition Zposition Zrotation Xrotation Yrotation
    JOINT RightLeg
    {
      OFFSET 0 -45 -0.999988
      CHANNELS 6 Xposition Yposition Zposition Zrotation Xrotation Yrotation
      JOINT RightFoot
      {
        OFFSET 0 -41 -2.00002
        CHANNELS 6 Xposition Yposition Zposition Zrotation Xrotation Yrotation
        JOINT RightToeBase
        {
          OFFSET 1.31387e-05 -7.5 12.5
          CHANNELS 6 Xposition Yposition Zposition Zrotation Xrotation Yrotation
          JOINT RightFootToe
          {
            OFFSET 0 0 4
            CHANNELS 6 Xposition Yposition Zposition Zrotation Xrotation Yrotation
            End Site
            {
              OFFSET 0 0 0
            }
          }
        }
      }
    }
  }
}
MOTION
Frames:	2
Frame Time:	0.0111111
-475.986 91.4595 669.102 -4.04937 -3.10598 -143.01 -1.54449e-05 8 3.39104e-06 -9.17453 2.39359 13.205 3.05323e-06 8 -2.13291e-05 1.9201 -0.158326 5.54168 7.34485e-06 8 3.403e-05 0.949426 -0.103781 2.77198 0 8 -1.13687e-13 0.959646 -0.102512 2.76819 -0.000172248 17 -0.00025595 1.36646 3.78446 13.0555 3.49616e-05 10.8 1.10897e-05 -0.855446 -6.04715 30.8768 4.9998 17 -0.000193509 -4.65979 4.08776 2.45299 6.45 2.84217e-14 0 -0.362593 0.136523 0.23063 6.45002 0.000119746 0.000350531 48.8349 -13.5988 20.3411 -4.90135e-06 -32.4 -1.99695 -67.7111 -54.2511 -78.7386 -1.03261e-05 -25.65 2 -3.88598 -25.4562 -29.9386 -0.499992 -1.49998 2.64999 11.1163 -10.6661 11.4053 -4.13717e-07 -3.79998 3.70004 -0.0496998 26.5219 -0.0231114 3.5402e-07 -3.00004 2.69995 0.0111433 17.6874 -0.0202951 1.35361e-05 -1.90009 1.59998 1.60222e-05 3.21848e-06 1.39351e-06 6.88047e-06 -8.29995 1.9 -5.26968 18.4042 1.03278 -2.07565e-06 -4.49996 -5.41051e-06 -25.7364 0.0203683 0.0568808 -4.28726e-05 -3.4239 2.15166e-05 -19.4557 0.000719055 0.0411024 -0.249993 -2.2 0.4 1.60222e-05 3.21848e-06 1.39351e-06 -1.49941e-05 -8.29998 0.999993 -4.08684 14.7929 0.706633 -2.49051e-09 -4.64997 1.1277e-06 -7.2904 0.0381454 0.0419088 -2.56664e-05 -3.30004 1.15377e-05 -6.38431 0.0260724 0.0379825 -0.500014 -2.15006 -0.800018 1.60222e-05 3.21848e-06 1.39351e-06 -8.50461e-06 -7.75001 -0.199999 -2.19708 11.0499 0.388657 1.00437e-05 -3.84935 9.02652e-07 -25.8215 0.0438028 0.108173 -1.27827e-05 -3.40003 1.35011e-05 -18.4072 0.00480727 0.075593 -0.75002 -1.75003 -1.85001 1.60222e-05 3.21848e-06 1.39351e-06 -1.75934e-05 -7.15 -0.999996 -1.31781 9.80167 0.300214 1.19021e-05 -3.00609 8.67009e-07 -13.115 -0.0210584 0.00654215 -1.80488e-05 -2.35002 5.30195e-06 1.92453e-05 -0.0181505 0.0132745 -5.0002 16.9999 -0.000337222 -2.37345 1.9223 12.9239 -6.45 0 5.68434e-14 -1.77797 0.32409 -3.52555 -6.44999 0.000195905 -0.000384437 -10.7819 -22.3594 -4.62144 -7.16054e-05 -32.4 -1.99994 44.768 -62.5718 61.4997 5.84589e-05 -25.65 1.99999 -36.9688 21.3771 44.4755 0.499998 -1.50004 2.65002 -102.691 28.0692 -20.0074 -5.89644e-05 -3.80006 3.70003 0.0734654 29.6641 0.0532249 -8.6633e-06 -3 2.69999 0.102019 37.7671 -0.536607 6.03382e-05 -1.89997 1.6 5.4216e-06 -2.40237e-06 -6.96926e-07 -6.11137e-05 -8.30001 1.89996 0.02566 1.64481 0.0155997 -3.22397e-05 -4.49998 4.85188e-05 -3.09304e-05 0.0124397 0.142393 4.50079e-05 -3.39999 -1.6755e-05 -3.31898e-05 0.0190187 0.139325 0.249969 -2.19998 0.400045 5.4216e-06 -2.40237e-06 -6.96926e-07 2.38203e-05 -8.29996 0.999989 3.02848 8.43317 -0.639011 -1.20684e-05 -4.65003 -2.47509e-05 15.6532 0.00329701 -0.0731189 3.49888e-05 -3.29996 -1.01941e-05 10.5056 0.00613328 -0.0860649 0.499994 -2.15003 -0.799997 5.4216e-06 -2.40237e-06 -6.96926e-07 3.32831e-05 -7.75001 -0.200036 8.28724 19.8189 -2.63769 4.06855e-06 -3.8 1.66202e-05 21.5801 -0.00249753 -0.0507874 -2.5278e-05 -3.39995 -9.48401e-06 16.9105 0.0372041 -0.0214558 0.750031 -1.74996 -1.84996 5.4216e-06 -2.40237e-06 -6.96926e-07 -3.73632e-05 -7.15 -0.999996 12.2907 27.0659 -4.66844 -5.09541e-06 -2.99998 2.36568e-05 0.916735 -0.0121635 -0.00433693 -1.51668e-05 -2.35003 -1.12032e-05 0.90346 -0.0450149 0.0203865 8.00001 7.23545e-08 -1.02509e-05 9.88947 -13.6837 26.9647 6.78584e-06 -45 -1.00005 0.571416 1.72428 1.9351 4.7885e-06 -41 -2.00001 -7.50045 17.159 -30.149 -1.91192e-05 -7.5 12.5 -3.42522e-07 1.22846e-06 -1.25368e-07 1.13687e-13 -2.22045e-16 4 -3.14219 -5.49772 17.6736 -8.00001 -7.23545e-08 1.02509e-05 -21.289 -8.36889 0.980563 8.32895e-06 -45 -1.00001 -0.0217452 12.5117 -6.99566 -5.4844e-06 -41 -2.00006 16.645 -3.92909 -29.9353 2.94971e-05 -7.5 12.5 -0.000181 -1.25336e-05 1.91926e-05 5.68434e-14 0 4 -0.821449 2.82622 7.06632 
-475.995 91.4594 669.103 -4.05194 -3.1022 -143.045 -1.54449e-05 8 3.39104e-06 -9.17163 2.38489 13.2152 3.05323e-06 8 -2.13291e-05 1.92005 -0.160317 5.55075 7.34485e-06 8 3.403e-05 0.949342 -0.104666 2.77651 0 8 1.13687e-13 0.959482 -0.103103 2.77245 -0.000172248 17 -0.00025595 1.37279 3.81007 13.0789 3.49616e-05 10.8 1.10897e-05 -0.875892 -5.9801 30.9317 4.9998 17 -0.000193509 -4.63551 4.07063 2.42807 6.45 -2.84217e-14 0 -0.352659 0.130834 0.245356 6.45002 0.000119746 0.000350531 48.9986 -13.6282 20.2951 -4.90135e-06 -32.4 -1.99695 -68.2251 -54.2629 -79.0565 -1.03261e-05 -25.65 2 -4.22479 -25.0158 -30.322 -0.499992 -1.49998 2.64999 11.1792 -10.4181 11.5501 -4.13717e-07 -3.79998 3.70004 -0.0490088 26.6466 -0.0223224 3.5402e-07 -3.00004 2.69995 0.0114457 17.7715 -0.0206677 1.35361e-05 -1.90009 1.59998 1.60222e-05 3.21848e-06 1.39351e-06 6.88047e-06 -8.29995 1.9 -5.68961 18.9103 1.13757 -2.07565e-06 -4.49996 -5.41051e-06 -27.4478 0.0204861 0.0584526 -4.28726e-05 -3.4239 2.15166e-05 -20.5129 0.000785017 0.0393126 -0.249993 -2.2 0.4 1.60222e-05 3.21848e-06 1.39351e-06 -1.49941e-05 -8.29998 0.999993 -4.39522 15.2075 0.773979 -2.49045e-09 -4.64997 1.1277e-06 -9.43094 0.046319 0.0486326 -2.56664e-05 -3.30004 1.15377e-05 -8.11119 0.0278802 0.0433826 -0.500014 -2.15006 -0.800018 1.60222e-05 3.21848e-06 1.39351e-06 -8.50461e-06 -7.75001 -0.199999 -2.36529 11.4317 0.4263 1.00437e-05 -3.84935 9.02652e-07 -30.4417 0.0495683 0.122164 -1.27827e-05 -3.40003 1.35011e-05 -21.3424 0.00396039 0.0846134 -0.75002 -1.75003 -1.85001 1.60222e-05 3.21848e-06 1.39351e-06 -1.75934e-05 -7.15 -0.999996 -1.42509 10.1999 0.33062 1.19021e-05 -3.00609 8.67009e-07 -13.1154 -0.0193923 0.0062163 -1.80488e-05 -2.35002 5.30195e-06 1.84331e-05 -0.0165874 0.0122393 -5.0002 16.9999 -0.000337222 -2.33124 1.87544 12.9451 -6.45 0 5.68434e-14 -1.77973 0.331904 -3.51944 -6.44999 0.000195905 -0.000384437 -10.7482 -22.3661 -4.52009 -7.16054e-05 -32.4 -1.99994 45.466 -62.4905 61.9278 5.84589e-05 -25.65 1.99999 -36.9063 21.6468 44.5583 0.499998 -1.50004 2.65002 -103.223 27.9875 -19.7344 -5.89644e-05 -3.80006 3.70003 0.0735548 29.6639 0.0531927 -8.6633e-06 -3 2.69999 0.10068 37.6023 -0.535906 6.03382e-05 -1.89997 1.6 5.4216e-06 -2.40237e-06 -6.96926e-07 -6.11137e-05 -8.30001 1.89996 0.0261778 1.75156 0.0141837 -3.22397e-05 -4.49998 4.85188e-05 -3.01259e-05 0.012528 0.142512 4.50079e-05 -3.39999 -1.6755e-05 -3.388e-05 0.0191662 0.139484 0.249969 -2.19998 0.400045 5.4216e-06 -2.40237e-06 -6.96926e-07 2.38203e-05 -8.29996 0.999989 3.00507 8.49201 -0.635978 -1.20684e-05 -4.65003 -2.47509e-05 15.1478 0.00345841 -0.0733186 3.49888e-05 -3.29996 -1.01941e-05 10.1262 0.00629986 -0.086016 0.499994 -2.15003 -0.799997 5.4216e-06 -2.40237e-06 -6.96926e-07 3.32831e-05 -7.75001 -0.200036 8.21365 19.775 -2.61181 4.06855e-06 -3.8 1.66202e-05 21.5518 -0.00256819 -0.0505859 -2.5278e-05 -3.39995 -9.48401e-06 16.8929 0.0370884 -0.0210208 0.750031 -1.74996 -1.84996 5.4216e-06 -2.40237e-06 -6.96926e-07 -3.73632e-05 -7.15 -0.999996 12.1726 26.9706 -4.61468 -5.09541e-06 -2.99998 2.36568e-05 1.25478 -0.011783 -0.00428009 -1.51668e-05 -2.35003 -1.12032e-05 1.22854 -0.0448666 0.019771 8.00001 7.23545e-08 -1.02509e-05 9.89146 -13.6675 26.9547 6.78584e-06 -45 -1.00005 0.571035 1.72399 1.92616 4.7885e-06 -41 -2.00001 -7.51345 17.1453 -30.1388 -1.91192e-05 -7.5 12.5 -3.42522e-07 1.22846e-06 -1.25368e-07 0 1.11022e-16 4 -3.14153 -5.5037 17.6594 -8.00001 -7.23545e-08 1.02509e-05 -21.2898 -8.39133 1.00631 8.32895e-06 -45 -1.00001 -0.0211361 12.5395 -7.0023 -5.4844e-06 -41 -2.00006 16.6289 -3.91514 -29.9227 2.94971e-05 -7.5 12.5 -0.000181 -1.25336e-05 1.91926e-05 -5.68434e-14 1.77636e-15 4 -0.796485 2.82627 7.06466 
